<svg xmlns="http://www.w3.org/2000/svg" viewBox="0 0 2194.99 673.31"><g id="Ebene_2" data-name="Ebene 2"><g id="Ebene_1-2" data-name="Ebene 1"><path d="M2.29,7.11c38.58-18.29,73.09,22,95.88,47.37,11.22,12.48,23.26,25,38.24,33a64.48,64.48,0,0,0,22,7.16c10.43,1.33,21.14-.88,31.47,1.45,19.64,4.45,31.44,27,25.51,45.79a1.52,1.52,0,0,0,1.45,1.9l32.56,1.54a1.51,1.51,0,0,0,1.29-2.26l-10.19-15-1.7,2.2,14.66,3.76a1.51,1.51,0,0,0,1.46-2.51L242.5,118.67l-.3,2.36c8.82-3.85,9.65-16.5,2-21.93l-.75,2.79c65-6.76,129.1,12,191.6,27.44q95.07,23.49,190.15,47c14.75,3.65,29.64,7.29,43.61,13.38a129.67,129.67,0,0,1,34.8,23c19.33,17.38,35.44,38.14,56.63,53.45,39.28,28.38,88.27,36.53,135.28,42.22,28.69,3.47,57.54,6.07,86,11.5a321.56,321.56,0,0,1,40.66,10.33c12.08,4,34.34,11.75,31,28.41a1.53,1.53,0,0,0,1,1.85l24.19,5.74-.66-2.51a31.4,31.4,0,0,1-18.71,11,1.51,1.51,0,0,0,0,2.89l16.86,3.55a1.52,1.52,0,0,0,1.85-1.85c-1.36-4.67-6.15-1.67-7.23,1.64a4.68,4.68,0,0,0,1.23,5.17c1.31,1.26,3.3,1.79,5,2.31,1.46.44,3.39.44,4.64,1.35,2.36,1.7.74,2.51,1,4.75l-2.25,1.29,10.68,5.32a1.53,1.53,0,0,0,2-.54,41.55,41.55,0,0,0,4.87-13.85c.94-6.11-.28-11.25-1.08-17.19-.64-4.86,3.86-10.58,4.86-15.6a39.23,39.23,0,0,0-.14-15.53l-1,1.84c63-13.66,131,5.7,177.36,50.43,1.39,1.34,3.52-.78,2.12-2.12-47.16-45.49-116.25-65.09-180.28-51.2a1.53,1.53,0,0,0-1,1.85,35.37,35.37,0,0,1-.55,16.83c-1.07,3.7-4.65,7.66-5.14,11.25-.19,1.4,1.4,4.47,1.7,6a36.47,36.47,0,0,1,.7,8.53,37.81,37.81,0,0,1-4.92,17.29l2-.53-10.68-5.32c-.92-.46-2.37.08-2.26,1.3.46,4.9,5.66,2.85,7.19-.46a4.4,4.4,0,0,0-.81-5.26c-1.25-1.32-3.2-1.92-4.88-2.45-1.07-.35-2.21-.5-3.29-.83-2.1.08-3.2-.8-3.31-2.66-1-1.22-.74-2.14.61-2.76l1.85-1.85-16.86-3.54v2.89a33.76,33.76,0,0,0,20-11.78,1.52,1.52,0,0,0-.66-2.51l-24.2-5.74,1,1.84c4.52-22.65-28.49-31-44.26-35.52C987,316.81,961.4,313.11,935.88,310c-51-6.16-104.89-9.07-151.51-32.74-24.71-12.55-43.43-31.36-62.52-51-9.11-9.36-18.46-18.57-29-26.29-11.51-8.41-24.4-14.31-37.92-18.69-31.16-10.1-63.81-16.51-95.6-24.37l-97.55-24.11c-36.3-9-72.52-18.69-109.19-26.12-35.9-7.27-72.53-11.63-109.13-7.83a1.52,1.52,0,0,0-.76,2.8c6,4.28,4.54,13.9-2,16.75a1.52,1.52,0,0,0-.31,2.36l12.39,12.75,1.46-2.51-14.66-3.75a1.51,1.51,0,0,0-1.69,2.2l10.19,15.06,1.3-2.26-32.56-1.54,1.44,1.9c4.69-14.88-.67-31.6-12.47-41.69-16.12-13.8-36.88-5.69-55.62-11.09-19.84-5.72-35.09-21.2-48.56-36.06S75.41,23.36,58.23,12.34,20.15-4.66.77,4.52C-1,5.34.55,7.93,2.29,7.11Z"/><path d="M1276.46,387.4a176.84,176.84,0,0,0,46.11,36.16c18.62,10.11,39,15.37,58.65,23,19.86,7.73,37.06,20.46,56.49,29,20,8.82,42.14,11.25,63.51,14.65,22.52,3.58,45.11,6.65,67.89,8,23.39,1.43,46.85,1.73,70.19,4.1s46.2,6.28,69.12,10.49c21.42,3.94,43.94,6.83,63.95,15.91,18.27,8.3,32.55,23.15,50.77,31.5,8.37,3.84,17.4,5.77,26,9a45.52,45.52,0,0,1,13.31,7.4c3.23,2.7,6.09,5.86,9.62,8.2a13.29,13.29,0,0,0,10.17,2.3c1.89-.36,1.09-3.25-.8-2.89-5,1-9.06-2.65-12.49-5.77a61.29,61.29,0,0,0-10.09-8c-7.87-4.58-16.86-6.65-25.43-9.48-19-6.26-33.25-20-50.16-30-18-10.58-38.57-14.48-58.79-18.26-22.2-4.15-44.42-8.27-66.82-11.26-22.89-3.06-45.84-4.27-68.89-5.28s-46.1-2.91-69-6.23c-11.41-1.65-22.8-3.5-34.18-5.37-10.49-1.72-21-3.4-31.26-6.29-20.43-5.77-37.61-18.11-56.32-27.64-19.09-9.72-40.07-14.49-59.68-22.91A173.34,173.34,0,0,1,1289,395.76c-3.6-3.34-7-6.85-10.37-10.48-1.3-1.43-3.42.7-2.12,2.12Z"/><path d="M1882.91,586.46c18.52,9.22,38.76,13.94,59.27,16,21,2.1,42.06,1.57,63.07.8,10.6-.38,21.2-.83,31.8-1.07,5.35-.12,10.79-.42,16.11.21,5.53.65,10.15,3,14.67,6.1a129.82,129.82,0,0,0,13.73,8.59c4.77,2.47,9.7,4.61,14.66,6.65,10.33,4.25,20.69,8.39,30.85,13.06a511.37,511.37,0,0,1,58.71,31.78c2.35,1.47,4.68,3,7,4.48,1.63,1.06,3.13-1.54,1.52-2.59a510.73,510.73,0,0,0-58.45-32.85q-14.89-7.14-30.23-13.3c-10.18-4.1-20.52-8.07-29.82-14-4.35-2.77-8.35-6.17-13.06-8.35-5-2.31-10.39-2.88-15.81-2.92-10.53-.09-21.07.43-31.59.83-21.17.8-42.4,1.7-63.56.35-20.59-1.32-41.28-4.91-60.33-13.1-2.37-1-4.71-2.12-7-3.27-1.72-.85-3.24,1.73-1.51,2.59Z"/></g></g></svg>