<svg xmlns="http://www.w3.org/2000/svg" viewBox="0 0 756.5 85.31"><defs><style>.cls-1{fill:#fff;stroke:#000;stroke-miterlimit:10;}</style></defs><g id="Ebene_2" data-name="Ebene 2"><g id="Ebene_1-2" data-name="Ebene 1"><path class="cls-1" d="M18,78c27.19,5.5,578.24,6.58,730,6.82,15-43.17,6-62.7-3.69-72.56-25.7-26-102.9-2.38-146.31,9.69C536.5,39.06,485.92,44.07,384.76,54.09,220.18,70.39,131,48.38,109.14,38.16,78.07,23.6,66.52,24.47,43.41,26.21c-12.65.95-20.46,4.78-24.22,7-2.82,1.64-9.38,5.55-13.84,12.94C4.29,47.87-3.39,61,3,70,3,70,7.15,75.79,18,78Z"/></g></g></svg>