<svg width="420" height="509" viewBox="0 0 420 509" fill="none" xmlns="http://www.w3.org/2000/svg">
<g clip-path="url(#clip0_1_2)">
<path d="M30.52 481.5C51.31 484.45 83.33 488.82 122.52 493.5C343.64 519.89 394.16 508.21 413.52 481.5C415.87 478.25 421.05 470.93 418.52 465.5C409.75 446.72 321.65 489.14 279.52 479.5C140.66 447.73 30.66 263.81 28.52 21.5C28.52 21.5 28.52 0.77 14.52 0.5H0" fill="white"/>
<path d="M30.52 481.5C51.31 484.45 83.33 488.82 122.52 493.5C343.64 519.89 394.16 508.21 413.52 481.5C415.87 478.25 421.05 470.93 418.52 465.5C409.75 446.72 321.65 489.14 279.52 479.5C140.66 447.73 30.66 263.81 28.52 21.5C28.52 21.5 28.52 0.77 14.52 0.5H0" stroke="black" stroke-miterlimit="10"/>
</g>
<defs>
<clipPath id="clip0_1_2">
<rect width="419.7" height="508.87" fill="white"/>
</clipPath>
</defs>
</svg>
