<svg width="757" height="86" viewBox="0 0 757 86" fill="none" xmlns="http://www.w3.org/2000/svg">
<g clip-path="url(#clip0_1_6)">
<path d="M18 78C45.19 83.5 596.24 84.58 748 84.82C763 41.65 754 22.12 744.31 12.26C718.61 -13.74 641.41 9.88 598 21.95C536.5 39.06 485.92 44.07 384.76 54.09C220.18 70.39 131 48.38 109.14 38.16C78.07 23.6 66.52 24.47 43.41 26.21C30.76 27.16 22.95 30.99 19.19 33.21C16.37 34.85 9.80997 38.76 5.34997 46.15C4.28997 47.87 -3.39003 61 2.99997 70C2.99997 70 7.14997 75.79 18 78Z" fill="white" stroke="black" stroke-miterlimit="10"/>
</g>
<defs>
<clipPath id="clip0_1_6">
<rect width="756.5" height="85.31" fill="white"/>
</clipPath>
</defs>
</svg>
