<svg xmlns="http://www.w3.org/2000/svg" viewBox="0 0 543 510.79"><defs><style>.cls-1{fill:#fff;stroke:#000;stroke-miterlimit:10;}</style></defs><g id="Ebene_2" data-name="Ebene 2"><g id="Ebene_1-2" data-name="Ebene 1"><path class="cls-1" d="M541.5,510.29H4.5c-.28-118.22-.68-198.94-1-252-.08-12.23-.19-30.07-.4-52.64-.53-56.2,0-112.44-2.55-168.58a38.89,38.89,0,0,1,1-10.78,39.68,39.68,0,0,1,5-12,45,45,0,0,1,11-8c7.83-4,14.87-4.38,19-5,20.87-3.12,47.41,3.7,56,8,43.85,22,61.12,89.71,72,129,40.92,147.78,61.38,221.67,103,246,27.07,15.84,58.41,15.77,69.8,15.93,20.94.31,41.93-3.37,113.2-32.93,23.5-9.75,55-23.37,92-41q-.51,73.56-1,147.11Z"/></g></g></svg>