<svg xmlns="http://www.w3.org/2000/svg" viewBox="0 0 1167.04 196.33"><defs><style>.cls-1{fill:#fff;stroke:#000;stroke-miterlimit:10;}</style></defs><g id="Ebene_2" data-name="Ebene 2"><g id="Ebene_1-2" data-name="Ebene 1"><path class="cls-1" d="M1.51,184.83l1165,11c-.56-9.31-3-27.12-16-36-5.82-4-11.29-4.35-25-5-27.94-1.33-41.91-2-62-2-18.31,0-18.64-.52-44-1-39.91-.75-443.33-7.74-528-8-4.55,0-19.71,0-40-1-11-.52-28.65-1.35-42-3-29-3.58-49.58-13.42-77-24-39.83-15.36-40.4-19.74-69-29-29.13-9.43-35.11-7.66-75-16-40.84-8.54-70.62-19.59-96-29a790.2,790.2,0,0,1-92-41q.49,73.55,1,147.1Z"/></g></g></svg>