<svg width="113" height="73" viewBox="0 0 113 73" fill="none" xmlns="http://www.w3.org/2000/svg">
<path d="M31.8776 30.0049C9.55216 30.5174 2 71 2 71H63C63 71 54.5992 29.4833 31.8776 30.0049Z" fill="white" stroke="black" stroke-width="3" stroke-linecap="round"/>
<path d="M31.8901 43.0004C15.9852 43.1117 14 68 14 68H51C51 68 47.8796 42.8884 31.8901 43.0004Z" fill="black" stroke="black" stroke-width="3" stroke-linecap="round"/>
<path d="M54.5 3.58945C38.0369 6.90224 28 30 28 30C28 30 41 27.5 51.5 41C57.1547 48.2703 62.5 71 62.5 71H111C111 71 109.481 31.2694 96.5 15.663C84.8835 1.69691 72 0.0680151 54.5 3.58945Z" fill="white" stroke="black" stroke-width="3" stroke-linecap="round"/>
<path d="M39 14.5C39 14.5 54.6617 19.3313 65 19.5C76.2984 19.6844 93.5 14.5 93.5 14.5" stroke="black" stroke-width="2" stroke-linecap="round"/>
<path d="M49.5 37.5C49.5 37.5 70.9005 40.4902 84.5 39C92.4178 38.1324 104.5 35 104.5 35" stroke="black" stroke-width="2" stroke-linecap="round"/>
<path d="M60 58C60 58 75.2534 58.5667 85 58C93.826 57.4869 107.5 55.5 107.5 55.5" stroke="black" stroke-width="2" stroke-linecap="round"/>
<line x1="6.10847" y1="58.5119" x2="15.1085" y2="60.5119" stroke="black"/>
<line x1="10.1085" y1="47.5119" x2="19.1085" y2="49.5119" stroke="black"/>
<line x1="20.372" y1="35.7171" x2="26.4241" y2="43.6778" stroke="black"/>
<line x1="39.56" y1="31.464" x2="35.3781" y2="42.7756" stroke="black"/>
<line x1="52.9347" y1="43.3106" x2="43.5876" y2="49.0342" stroke="black"/>
<line x1="59.7912" y1="57.4871" x2="49.1126" y2="59.9562" stroke="black"/>
<line x1="73.4945" y1="18.9258" x2="76.4945" y2="38.9258" stroke="black"/>
<line x1="51.4939" y1="18.078" x2="48.4939" y2="37.078" stroke="black"/>
<line x1="94.4939" y1="37.922" x2="97.4939" y2="56.922" stroke="black"/>
<line x1="63.5" y1="39" x2="63.5" y2="58" stroke="black"/>
<line x1="82.5" y1="58" x2="82.5" y2="70" stroke="black"/>
<line x1="66.4924" y1="2.08689" x2="63.4924" y2="19.0869" stroke="black"/>
</svg>
