<svg width="111" height="71" viewBox="0 0 111 71" fill="none" xmlns="http://www.w3.org/2000/svg">
<path d="M11.5 41.0503C4.50005 50.5503 0 70.5503 0 70.5503L110.5 70.0503C110.5 70.0503 110.125 48.6489 105.5 36.0503C100.536 22.5255 98.0613 12.1059 85.5001 5.05028C77.9842 0.828667 74.1147 -0.263351 65.5001 0.0503169C56.9209 0.362695 51.6924 0.862874 44.5002 5.55031C44.5002 5.55031 38.5753 9.81994 35.5002 13.5503C31.2173 18.7456 26.5001 28.5503 26.5001 28.5503C26.5001 28.5503 21.8106 29.8255 19.0001 32.0503C15.7452 34.627 11.5 41.0503 11.5 41.0503Z" fill="white"/>
</svg>
