<svg width="543" height="511" viewBox="0 0 543 511" fill="none" xmlns="http://www.w3.org/2000/svg">
<g clip-path="url(#clip0_2_2)">
<path d="M541.5 510.29H4.49999C4.21999 392.07 3.81999 311.35 3.49999 258.29C3.41999 246.06 3.30999 228.22 3.09999 205.65C2.56999 149.45 3.09999 93.21 0.549986 37.07C0.379083 33.4476 0.715677 29.8191 1.54999 26.29C2.54562 22.0423 4.23496 17.9879 6.54999 14.29C9.79014 11.0814 13.4992 8.38393 17.55 6.29C25.38 2.29 32.42 1.91 36.55 1.29C57.42 -1.83 83.96 4.99 92.55 9.29C136.4 31.29 153.67 99 164.55 138.29C205.47 286.07 225.93 359.96 267.55 384.29C294.62 400.13 325.96 400.06 337.35 400.22C358.29 400.53 379.28 396.85 450.55 367.29C474.05 357.54 505.55 343.92 542.55 326.29C542.21 375.33 541.877 424.367 541.55 473.4L541.5 510.29Z" fill="white" stroke="black" stroke-miterlimit="10"/>
</g>
<defs>
<clipPath id="clip0_2_2">
<rect width="543" height="510.79" fill="white"/>
</clipPath>
</defs>
</svg>
