<svg width="1168" height="197" viewBox="0 0 1168 197" fill="none" xmlns="http://www.w3.org/2000/svg">
<g clip-path="url(#clip0_1_2)">
<path d="M1.51001 184.83L1166.51 195.83C1165.95 186.52 1163.51 168.71 1150.51 159.83C1144.69 155.83 1139.22 155.48 1125.51 154.83C1097.57 153.5 1083.6 152.83 1063.51 152.83C1045.2 152.83 1044.87 152.31 1019.51 151.83C979.6 151.08 576.18 144.09 491.51 143.83C486.96 143.83 471.8 143.83 451.51 142.83C440.51 142.31 422.86 141.48 409.51 139.83C380.51 136.25 359.93 126.41 332.51 115.83C292.68 100.47 292.11 96.09 263.51 86.83C234.38 77.4 228.4 79.17 188.51 70.83C147.67 62.29 117.89 51.24 92.51 41.83C61.0027 30.1337 30.2736 16.4392 0.51001 0.829987C0.836676 49.8633 1.17001 98.8966 1.51001 147.93V184.83Z" fill="white" stroke="black" stroke-miterlimit="10"/>
</g>
<defs>
<clipPath id="clip0_1_2">
<rect width="1167.04" height="196.33" fill="white"/>
</clipPath>
</defs>
</svg>
