<svg width="111" height="71" viewBox="0 0 111 71" fill="none" xmlns="http://www.w3.org/2000/svg">
<g clip-path="url(#clip0_0_3)">
<path d="M11.5 41.05C4.5 50.55 0 70.55 0 70.55L110.5 70.05C110.5 70.05 110.12 48.65 105.5 36.05C100.5 22.53 98.06 12.11 85.5 5.04999C78 0.829988 74.11 -0.260012 65.5 0.0499876C56.89 0.359988 51.69 0.859988 44.5 5.54999C44.5 5.54999 38.58 9.81999 35.5 13.55C31.22 18.75 26.5 28.55 26.5 28.55C23.8239 29.2945 21.2896 30.4771 19 32.05C15.75 34.63 11.5 41.05 11.5 41.05Z" fill="white"/>
</g>
<defs>
<clipPath id="clip0_0_3">
<rect width="110.5" height="70.55" fill="white"/>
</clipPath>
</defs>
</svg>
